<?xml version="1.0" encoding="UTF-8" standalone="no"?>
<svg
   xmlns:dc="http://purl.org/dc/elements/1.1/"
   xmlns:cc="http://creativecommons.org/ns#"
   xmlns:rdf="http://www.w3.org/1999/02/22-rdf-syntax-ns#"
   xmlns:svg="http://www.w3.org/2000/svg"
   xmlns="http://www.w3.org/2000/svg"
   xmlns:sodipodi="http://sodipodi.sourceforge.net/DTD/sodipodi-0.dtd"
   xmlns:inkscape="http://www.inkscape.org/namespaces/inkscape"
   width="267pt"
   height="142pt"
   viewBox="0 0 267 142"
   version="1.1"
   id="svg3067"
   inkscape:version="0.48.4 r9939"
   sodipodi:docname="garagehub_logobluewebsite.svg"
   inkscape:export-xdpi="300"
   inkscape:export-ydpi="300">
  <metadata
     id="metadata3093">
    <rdf:RDF>
      <cc:Work
         rdf:about="">
        <dc:format>image/svg+xml</dc:format>
        <dc:type
           rdf:resource="http://purl.org/dc/dcmitype/StillImage" />
        <dc:title></dc:title>
      </cc:Work>
    </rdf:RDF>
  </metadata>
  <defs
     id="defs3091" />
  <sodipodi:namedview
     pagecolor="#ffffff"
     bordercolor="#666666"
     borderopacity="1"
     objecttolerance="10"
     gridtolerance="10"
     guidetolerance="10"
     inkscape:pageopacity="0"
     inkscape:pageshadow="2"
     inkscape:window-width="1855"
     inkscape:window-height="1056"
     id="namedview3089"
     showgrid="false"
     inkscape:zoom="4"
     inkscape:cx="166.76211"
     inkscape:cy="133.44905"
     inkscape:window-x="65"
     inkscape:window-y="24"
     inkscape:window-maximized="1"
     inkscape:current-layer="svg3067" />
  <g
     inkscape:groupmode="layer"
     id="layer3"
     inkscape:label="body"
     style="display:inline">
    <path
       d="m 173.3803,3.330095 c 5.07,-0.79 9.8201,1.42 13.6301,4.6099995 0.71,1.28 0.7999,2.7899995 1.1999,4.1699995 11.92,0.55 23.87,0.04 35.81,0.25 2.49,-0.02 7.06972,1.289293 9.56972,1.289293 11.90308,1.832186 17.73324,10.895212 23.69577,19.307611 2.86692,6.871135 5.41601,14.005481 5.37451,18.033097 0.03,12.69 -0.01,25.39 0.02,38.080003 -0.93567,9.714599 -2.59939,13.944562 -4.25,17.742402 -4.24616,10.35287 -15.84747,14.92811 -24.6,19.70761 -4.0031,1.32212 -7.62,2.57 -11.76,2.19 -10.38,-0.03 -23.4799,0.1369 -33.8599,0.1769 -0.38646,2.21973 -0.52,2.82381 -1.2,5.3131 -3.16826,3.95172 -9.44007,3.27083 -13.5201,3.35 -0.12,-3.92 -0.93,-8.21 1.53,-11.62 -8.47815,0.6179 -14.83286,0.42136 -21.9899,0.74 -3.07,0.21 -4.9104,-3.27 -7.9904,-2.99 -20.37,-0.04 -37.71001,-0.02 -58.08,0 -0.82,0.97 -5.3396,1.35929 -6.1496,2.33929 -5.18,0.16 -8.59,0.61071 -13.76,0.65071 -2.3,-0.35 -3.74,2.08 -5.98,1.98 -6.34,0.08 -15.8,0.05 -22.14,0.01 -2.53,0.17 -4.4204,-2.15 -6.9504,-1.94 -4.939448,-0.28161 -9.984083,-3.46262 -14.5296,-6.25 -2.92,-2.68 -5.790104,-5.44 -8.4201038,-8.41 -2.1,-3.71 -3.77,-7.79 -4.34,-12.03001 -0.1,-19.350005 0.04,-38.710005 -0.06,-58.060005 -0.31,-6.68 2.6547788,-12.276903 6.6599998,-17.97 1.884071,-2.408319 5.652493,-5.711416 9.380104,-7.2 3.86,-0.6 7.3196,-2.8 11.3096,-2.57 2.51,0.07 4.4004,-2.220001 6.9504,-1.900001 7.38,0 14.76,0.01 22.14,0 2.21,-0.23 3.95,1.340001 5.98,1.890001 4.58,0.43 9.18,-0.2 13.76,0.23 2.03,0.7 3.8896,2.13 6.1496,1.89 17.02999,-0.03 41.05,-0.01 58.08,-0.01 2.88,0.35 5.1604,-2.1 7.9904,-2 9.66,-0.15 12.2899,0.27 21.9399,-0.23 -2.63,-3.000001 -1.41,-7.1500005 -1.59,-10.77 z"
       id="path3071"
       inkscape:connector-curvature="0"
       style="fill:#1154ac"
       sodipodi:nodetypes="ccccccccccccccccccccccccccccccccccccccc" />
  </g>
  <g
     inkscape:groupmode="layer"
     id="layer5"
     inkscape:label="mirrors"
     style="display:inline" />
  <g
     inkscape:groupmode="layer"
     id="layer2"
     inkscape:label="Windows"
     style="display:inline">
    <path
       style="fill:#0c4084"
       inkscape:connector-curvature="0"
       d="m 166.372,28.218722 c 10.62,-0.32 21.04,-2.5 31.6,-3.49 11,8.35 17.61,21.65 19.36,35.19 2.3,16.09 -0.65,33.54 -10.67,46.660008 -2.39,2.9 -4.84,5.9 -8.03,7.94 -5.22,0.53 -10.42,-0.81 -15.57,-1.46 -6.02,-1.08 -12.21,-0.43 -18.2,-1.69 -1.73,-0.39 -3.74,-0.89 -4.58,-2.64 0.1,-3.38 1.35,-6.61 2.86,-9.590008 3.26,-5.32 4.39,-11.5 6.55,-17.27 1.32,3.51 2.24,7.65 5.69,9.73 5.88,3.86 12.27,7.18 19.08,8.990008 3.08,0.97 5.93,-1.140008 7.84,-3.340008 9.15,-11.5 12.87,-27.84 7.16,-41.72 -2.41,-5.5 -4.83,-11.53 -9.81,-15.22 -3.92,-2.88 -8.58,0.31 -12.33,1.92 -5.57,3.15 -12.64,5.12 -15.82,11.16 -0.66,1.16 -1.27,2.35 -1.89,3.54 -2.06,-5.45 -3.65,-11.09 -6.41,-16.25 -1.42,-3.05 -2.8,-6.24 -3.13,-9.63 0.48,-2.78 4.16,-2.32 6.3,-2.83 z"
       id="path3075" />
    <path
       style="fill:#0e458d"
       inkscape:connector-curvature="0"
       d="m 187.3,42.260021 c 3.75,-1.61 8.41,-4.8 12.33,-1.92 4.98,3.69 7.4,9.72 9.81,15.22 5.71,13.88 1.99,30.22 -7.16,41.72 -1.91,2.2 -4.76,4.309999 -7.84,3.339999 -6.81,-1.809999 -13.2,-5.129999 -19.08,-8.989999 -3.45,-2.08 -4.37,-6.22 -5.69,-9.73 -2.16,5.77 -3.29,11.95 -6.55,17.27 0.53,-6.82 3.42,-13.25 3.54,-20.14 0.12,-6.33 0.19,-12.68 -0.06,-19.01 -0.24,-6.59 -3.1,-12.73 -3.42,-19.31 2.76,5.16 4.35,10.8 6.41,16.25 0.62,-1.19 1.23,-2.38 1.89,-3.54 3.18,-6.04 10.25,-8.01 15.82,-11.16 z"
       id="path3081" />
    <path
       style="fill:#0d458d"
       inkscape:connector-curvature="0"
       d="m 63.2704,112.97968 c 5.76,-3.02 12.47,-2.06 18.73,-2.32 17.21,0.22 34.51,-0.67 51.62,1.62 8.51,0.99 17.7,-0.34 25.61,3.51 -5.71,0.8 -11.49,0.38 -17.23,0.5 -18.68,0.17 -37.35,-0.14 -56.03,0.14 -7.71,0.81 -15.48,-0.8 -22.7,-3.45 z"
       id="path3087" />
    <path
       style="fill:#0d458e"
       inkscape:connector-curvature="0"
       d="m 79.38,23.390218 c 25.2,0.77 50.42,0.3 75.63,0.45 1.41,0.08 2.82,0.21 4.22,0.38 -1.42,0.69 -2.83,1.48 -4.42,1.71 -11.84,1.94 -23.85,2.2 -35.78,3.23 -15.35,0.15 -30.71,0.28 -46.06,0.08 -3.68,0.02 -7.41,-0.46 -10.71,-2.2 5.45,-2.12 11.3,-3.21 17.12,-3.65 z"
       id="path3073" />
    <path
       style="fill:#0c4084"
       inkscape:connector-curvature="0"
       d="m 25.900365,57.160381 c 1.76,-8.44 4.2,-17.139999 9.21,-24.239999 4.27,-0.6 8.6,-0.2 12.89,-0.26 7.03,0.15 14.08,-0.39 21.1,0.31 0.74,8.05 -1.61,15.949999 -1.74,23.989999 -0.09,8.01 0.06,16.03 -0.05,24.05 -0.13,8.73 2.52,17.300004 1.79,26.029999 -7.69,0.76 -15.4,-0.11 -23.1,0.25 -3.55,-0.05 -7.24,0.58 -10.68,-0.49 -2.9,-2.83 -4.13,-6.839995 -5.68,-10.479995 -4.55,-12.420004 -6.69,-26.110004 -3.74,-39.160004 z"
       id="path3079" />
    <path
       style="fill:#0e458d"
       inkscape:connector-curvature="0"
       d="m 30.029608,59 c 2.18,-4.9 4.45,-10.13 9.04,-13.27 5.8,2.35 11.66,5.99 14.38,11.88 2.88,5.64 4.92,12.34 2.72,18.57 -2.73,8.04 -9.04,15.19 -17.11,18.08 -4.83,-3.32 -7.14,-8.87 -9.23,-14.11 -2.75,-6.7 -2.67,-14.51 0.2,-21.15 z"
       id="path3083" />
  </g>
  <g
     inkscape:groupmode="layer"
     id="layer4"
     inkscape:label="lights">
    <path
       style="fill:#0e4894"
       inkscape:connector-curvature="0"
       d="m 17.359929,26.29 c 1.1,-0.03 2.19,-0.04 3.29,-0.03 1.13,5.45 -1.97,10.51 -4.2,15.25 -0.86,2.05 -3.2,2.2 -5.1,2.25 -0.22,-2.03 -0.52,-4.13 0.33,-6.07 1.54,-3.94 2.93,-8.11 5.68,-11.4 z"
       id="path3077" />
    <path
       style="fill:#0e4894"
       inkscape:connector-curvature="0"
       d="m 10.999662,96.98969 c 1.5,0.09 3.07,-0.12 4.52,0.39 2.57,4.05 4.26,8.62 5.78,13.15 0.71,1.56 -0.4,3.8 -2.29,3.5 -1.76,0.29 -2.6,-1.46 -3.38,-2.68 -2.38,-4.44 -4.86,-9.16 -4.63,-14.36 z"
       id="path3085" />
  </g>
</svg>
